<?xml version="1.0" standalone="no"?>
<!DOCTYPE svg PUBLIC "-//W3C//DTD SVG 20010904//EN"
 "http://www.w3.org/TR/2001/REC-SVG-20010904/DTD/svg10.dtd">
<svg version="1.0" xmlns="http://www.w3.org/2000/svg"
 width="142.000000pt" height="140.000000pt" viewBox="0 0 142.000000 140.000000"
 preserveAspectRatio="xMidYMid meet">

<g transform="translate(0.000000,140.000000) scale(0.100000,-0.100000)"
fill="#000000" stroke="none">
<path d="M485 975 c-26 -18 -67 -39 -91 -45 -49 -14 -84 -50 -84 -85 0 -12
-13 -42 -30 -66 -36 -53 -37 -69 -6 -106 13 -16 29 -49 36 -73 16 -59 22 -66
79 -85 26 -8 71 -30 99 -49 l52 -34 148 2 147 1 50 33 c27 18 66 37 88 43 48
13 87 50 87 82 0 13 13 44 30 68 36 54 37 71 6 112 -13 18 -29 50 -35 73 -13
47 -32 66 -81 83 -19 6 -60 27 -90 46 l-56 34 -151 0 -151 0 -47 -34z m383 -2
c17 -13 62 -36 100 -51 65 -27 67 -28 79 -74 6 -26 23 -62 37 -81 14 -19 26
-38 26 -43 0 -5 -14 -29 -30 -54 -16 -25 -30 -55 -30 -66 0 -34 -35 -69 -82
-83 -24 -7 -65 -28 -93 -46 l-50 -33 -145 2 c-141 2 -147 3 -181 29 -20 15
-55 34 -80 42 -67 24 -86 40 -94 81 -3 21 -20 57 -37 81 l-31 42 31 48 c17 26
35 67 41 89 10 36 17 44 51 58 22 9 45 16 50 16 6 0 33 15 60 34 l49 34 148 0
c142 0 149 -1 181 -25z"/>
<path d="M674 909 c-3 -5 0 -9 5 -9 6 0 11 -9 11 -20 0 -11 -6 -20 -12 -20 -9
0 -8 -4 2 -10 11 -7 5 -10 -23 -10 -25 0 -36 4 -32 11 4 6 13 8 20 5 8 -3 12
3 11 18 0 12 -6 23 -12 23 -6 0 -11 -7 -10 -16 1 -9 -5 -15 -11 -13 -23 4 -13
-26 15 -46 44 -31 71 -36 111 -18 57 26 78 97 33 110 -27 8 -102 4 -108 -5z
m116 -18 c13 -22 1 -38 -28 -37 -21 1 -27 6 -26 24 1 25 -6 28 -26 10 -12 -11
-12 -10 -2 3 15 20 69 20 82 0z m-75 -31 c-3 -5 -11 -10 -16 -10 -6 0 -7 5 -4
10 3 6 11 10 16 10 6 0 7 -4 4 -10z m31 -35 c1 -7 -4 -11 -11 -9 -7 3 -16 1
-20 -5 -3 -6 -12 -11 -18 -11 -7 0 -6 4 3 10 10 6 11 10 3 10 -22 0 -14 18 10
22 26 4 30 2 33 -17z"/>
<path d="M880 851 c0 -5 3 -17 6 -25 6 -15 8 -15 20 1 19 25 17 33 -6 33 -11
0 -20 -4 -20 -9z"/>
<path d="M437 830 c-11 -13 -10 -13 7 0 18 14 19 13 13 -2 -8 -22 47 -56 59
-36 5 8 10 6 14 -8 10 -27 3 -34 -34 -34 -32 0 -57 18 -69 50 -5 13 -6 13 -6
-1 -1 -8 8 -25 18 -36 11 -12 18 -22 17 -24 -2 -2 10 -14 25 -27 16 -13 29
-18 29 -12 0 10 4 9 15 0 10 -9 15 -9 15 -1 0 6 7 11 15 11 18 0 20 -16 3 -23
-7 -3 -3 -6 8 -6 17 -1 20 4 17 22 -4 19 -10 23 -31 19 -15 -2 -38 2 -52 8
l-25 10 28 -5 c15 -3 33 -2 40 2 7 4 18 8 25 9 32 5 42 15 42 43 0 16 -5 33
-11 36 -17 11 -19 1 -9 -33 5 -20 5 -30 -1 -27 -5 4 -9 13 -9 21 0 8 -4 12
-10 9 -6 -3 -7 1 -4 10 11 27 -13 42 -67 42 -32 -1 -54 -7 -62 -17z"/>
<path d="M820 825 c-7 -8 -9 -23 -5 -36 7 -20 8 -20 17 -6 5 10 6 22 2 29 -4
6 -3 8 3 5 6 -4 13 0 17 8 7 19 -18 20 -34 0z"/>
<path d="M767 792 c-14 -16 -15 -21 -4 -37 10 -12 14 -13 14 -4 0 8 3 24 7 37
9 27 4 28 -17 4z"/>
<path d="M895 774 c-19 -15 -22 -21 -9 -15 18 9 52 41 43 41 -2 0 -17 -12 -34
-26z"/>
<path d="M455 781 c6 -5 24 -13 40 -17 39 -9 30 0 -15 15 -19 6 -30 7 -25 2z"/>
<path d="M626 774 c-5 -13 2 -24 16 -24 5 0 6 5 3 10 -3 6 -2 10 4 10 5 0 9
-9 8 -19 -1 -15 -5 -17 -24 -10 -18 7 -25 4 -33 -12 -14 -24 -5 -39 22 -39 33
0 14 -11 -29 -17 -57 -8 -55 -15 3 -11 41 3 56 10 82 36 l31 32 -24 28 c-25
30 -51 37 -59 16z m-2 -56 c-5 -7 -1 -9 9 -5 9 3 19 2 22 -4 4 -5 -6 -8 -24
-7 -28 2 -46 18 -20 18 5 0 7 5 3 12 -4 7 -3 8 5 4 6 -4 8 -12 5 -18z"/>
<path d="M726 754 c-3 -9 -6 -28 -6 -43 0 -15 -4 -32 -10 -39 -6 -8 -5 -7 4 0
7 7 16 32 19 56 5 44 3 53 -7 26z"/>
<path d="M809 703 c-13 -16 -12 -17 4 -4 9 7 17 15 17 17 0 8 -8 3 -21 -13z"/>
<path d="M687 690 c-9 -11 -13 -20 -7 -20 5 0 14 9 20 20 6 11 9 20 8 20 -2 0
-11 -9 -21 -20z"/>
<path d="M378 673 c-39 -16 -46 -27 -28 -38 6 -4 9 -1 8 6 -2 7 5 15 15 17 18
4 25 -23 7 -31 -6 -3 -5 -4 2 -3 7 2 13 13 12 25 0 11 5 21 13 21 7 0 13 5 13
10 0 6 -1 10 -2 9 -2 -1 -20 -8 -40 -16z"/>
<path d="M931 657 c-11 -14 -5 -27 13 -27 6 0 4 4 -4 10 -28 17 16 23 49 5 17
-8 31 -13 31 -11 0 7 -56 36 -68 36 -5 0 -15 -6 -21 -13z"/>
<path d="M443 623 c-3 -10 -8 -21 -10 -25 -2 -5 6 -8 19 -8 16 0 19 3 10 8 -7
5 -10 16 -6 25 3 9 3 17 0 17 -4 0 -9 -8 -13 -17z"/>
<path d="M970 625 c7 -9 15 -13 17 -11 7 7 -7 26 -19 26 -6 0 -6 -6 2 -15z"/>
<path d="M880 607 c1 -19 29 -64 30 -46 0 8 -5 20 -12 27 -7 7 -8 12 -2 12 5
0 15 -5 21 -11 6 -6 19 -9 29 -7 13 2 5 8 -24 20 -29 11 -42 13 -42 5z"/>
<path d="M504 568 l-19 -23 23 19 c21 18 27 26 19 26 -2 0 -12 -10 -23 -22z"/>
<path d="M837 560 c9 -16 21 -30 26 -30 4 0 0 14 -10 30 -9 17 -21 30 -26 30
-4 0 0 -13 10 -30z"/>
<path d="M547 562 c-19 -20 -23 -37 -7 -27 10 6 33 45 27 45 -2 0 -11 -8 -20
-18z"/>
<path d="M590 555 c-7 -9 -9 -22 -5 -32 7 -17 8 -16 13 2 2 11 9 26 14 33 7 8
7 12 0 12 -5 0 -15 -7 -22 -15z"/>
<path d="M738 565 c-7 -7 3 -55 11 -55 4 0 6 14 3 30 -4 32 -5 33 -14 25z"/>
<path d="M786 545 c9 -14 18 -25 20 -25 2 0 -2 11 -8 25 -6 14 -15 25 -20 25
-5 0 -1 -11 8 -25z"/>
<path d="M644 535 c-1 -14 2 -22 7 -19 11 6 12 44 2 44 -5 0 -9 -11 -9 -25z"/>
<path d="M686 545 c4 -8 8 -15 10 -15 2 0 4 7 4 15 0 8 -4 15 -10 15 -5 0 -7
-7 -4 -15z"/>
</g>
</svg>
