<?xml version="1.0" standalone="no"?>
<!DOCTYPE svg PUBLIC "-//W3C//DTD SVG 20010904//EN"
 "http://www.w3.org/TR/2001/REC-SVG-20010904/DTD/svg10.dtd">
<svg version="1.0" xmlns="http://www.w3.org/2000/svg"
 width="920.000000pt" height="512.000000pt" viewBox="0 0 920.000000 512.000000"
 preserveAspectRatio="xMidYMid meet">

<g transform="translate(0.000000,512.000000) scale(0.100000,-0.100000)"
fill="#000000" stroke="none">
<path d="M5310 4896 c-58 -20 -118 -63 -255 -180 -190 -162 -323 -260 -407
-297 -253 -115 -409 -213 -546 -344 -154 -146 -231 -274 -276 -455 l-23 -94
-83 -12 c-53 -8 -93 -9 -107 -3 -14 5 -44 9 -69 9 -63 0 -84 -24 -84 -95 0
-70 -23 -96 -102 -119 -72 -21 -134 -79 -177 -168 -44 -89 -52 -172 -22 -224
12 -20 20 -42 17 -49 -2 -7 -26 -16 -52 -20 -33 -5 -56 -16 -76 -36 -36 -36
-32 -57 22 -114 21 -22 42 -52 45 -66 7 -29 -12 -75 -51 -122 -30 -35 -31 -85
-4 -120 l21 -26 -25 -16 c-38 -25 -93 -113 -112 -180 -11 -39 -17 -94 -17
-158 0 -53 -2 -95 -5 -92 -9 8 -42 -27 -42 -45 0 -9 32 -70 71 -136 172 -286
400 -724 554 -1059 165 -362 168 -366 350 -399 575 -102 1490 -69 1644 60 18
15 57 80 100 167 141 286 617 1164 684 1259 32 47 38 62 32 85 l-7 28 -14 -25
-15 -25 6 25 c36 159 -5 295 -116 376 l-49 36 31 44 c43 62 85 158 105 234 13
51 15 91 11 185 -11 222 -74 373 -216 516 -91 91 -176 146 -269 173 -45 13
-70 31 -153 110 -122 116 -214 186 -296 227 -60 30 -62 32 -55 63 4 17 7 81 7
141 -1 90 -7 135 -34 245 -73 293 -47 487 85 637 32 38 40 53 31 62 -13 13
-13 13 -57 -3z m-36 -91 c-54 -81 -84 -174 -91 -285 -6 -97 5 -179 48 -365 31
-130 34 -193 17 -369 -3 -25 2 -30 34 -42 82 -28 194 -113 355 -266 68 -66 98
-88 118 -88 40 0 146 -54 214 -108 142 -115 233 -272 265 -465 11 -61 8 -221
-5 -273 -18 -75 -71 -182 -124 -252 -79 -105 -243 -231 -380 -291 -69 -30 -69
-25 0 12 33 18 80 46 105 64 56 39 186 172 229 236 42 62 107 201 115 247 5
27 1 22 -15 -20 -62 -156 -215 -323 -432 -468 -102 -69 -214 -131 -234 -130
-10 0 -71 -15 -135 -35 -228 -71 -426 -99 -530 -78 -52 11 -108 42 -108 60 0
4 55 5 123 3 208 -7 393 41 662 173 291 142 457 273 528 416 34 69 65 184 53
196 -2 3 -15 -19 -27 -48 -45 -103 -161 -225 -353 -370 -158 -118 -302 -187
-533 -253 -162 -47 -404 -97 -456 -94 -23 1 -125 -4 -227 -11 -280 -20 -438
-5 -456 44 -4 9 -1 28 7 43 7 15 13 31 14 37 0 5 -68 8 -175 7 -277 -4 -417
35 -549 153 -34 30 -80 64 -101 75 -41 21 -48 37 -30 71 16 28 123 25 370 -11
550 -81 919 -83 1317 -5 173 33 460 119 522 155 25 15 9 12 -55 -11 -266 -92
-617 -141 -1019 -143 -219 0 -263 2 -355 21 -58 12 -152 27 -210 33 -127 14
-512 15 -557 1 -42 -12 -97 3 -130 35 -29 29 -25 51 19 105 58 72 54 140 -12
204 -22 21 -40 44 -40 50 0 22 37 45 89 55 29 5 57 12 62 15 15 10 10 43 -12
87 -28 54 -22 126 15 201 40 82 91 130 173 161 39 15 77 35 86 44 14 15 25 72
26 130 1 35 43 46 104 28 49 -14 80 -12 206 13 34 6 35 8 47 76 30 173 104
306 253 456 142 143 270 226 551 358 117 55 189 107 405 291 127 108 234 187
257 189 3 1 -13 -28 -38 -64z m-2121 -3299 c69 -132 163 -317 208 -411 45 -93
135 -280 201 -415 66 -135 115 -240 110 -235 -21 22 -132 233 -255 485 -71
146 -196 400 -278 565 -175 351 -167 357 14 11z m166 -178 c264 -537 450 -942
438 -955 -2 -1 -32 61 -67 140 -35 78 -160 340 -278 582 -281 575 -318 655
-306 655 3 0 99 -190 213 -422z m2077 266 c-62 -191 -180 -580 -266 -874 -88
-302 -121 -406 -114 -360 13 84 118 447 296 1020 99 321 115 366 124 357 3 -3
-15 -67 -40 -143z m-636 -379 c-10 -230 -35 -657 -46 -813 -3 -46 -8 -81 -11
-78 -9 9 37 1126 54 1326 8 84 8 83 11 -60 2 -80 -2 -248 -8 -375z m349 -16
c-66 -288 -138 -598 -159 -689 -50 -216 -50 -178 0 85 80 419 149 716 221 960
23 77 44 148 46 158 3 10 7 16 10 14 2 -3 -51 -240 -118 -528z m-715 161 c60
-446 117 -1032 101 -1048 -7 -7 -11 22 -50 358 -78 664 -95 829 -100 940 -5
138 -1 117 49 -250z m1750 323 c-79 -191 -649 -1301 -662 -1288 -6 5 664 1325
673 1325 2 0 -3 -17 -11 -37z m-2666 -228 c199 -454 440 -1067 430 -1097 -2
-5 -28 53 -57 129 -30 76 -97 237 -149 358 -52 121 -117 272 -144 335 -47 109
-198 511 -198 526 0 15 11 -9 118 -251z m1125 -500 c3 -319 3 -569 1 -555 -2
14 -10 170 -19 347 -16 339 -20 819 -8 913 l8 55 6 -90 c4 -49 9 -351 12 -670z
m-1249 477 c57 -114 140 -287 185 -384 83 -181 283 -659 278 -665 -5 -5 -607
1301 -607 1316 0 14 46 -72 144 -267z m321 -122 c194 -531 346 -962 342 -973
-3 -11 -139 329 -254 638 -117 313 -257 745 -234 719 5 -5 70 -178 146 -384z
m1280 44 c-42 -300 -98 -714 -126 -921 -13 -97 -23 -112 -14 -20 49 470 99
853 146 1114 16 89 29 166 30 170 0 5 3 3 5 -3 3 -6 -16 -159 -41 -340z m776
-336 c-182 -359 -331 -650 -331 -646 -1 30 240 525 442 908 197 372 212 400
216 395 2 -2 -145 -297 -327 -657z m-1900 316 c177 -528 317 -997 306 -1027
-2 -7 -12 15 -21 48 -10 33 -57 182 -106 330 -232 712 -322 1010 -295 983 3
-3 56 -154 116 -334z m174 51 c132 -482 190 -725 220 -927 24 -161 16 -153
-21 17 -34 162 -88 384 -144 595 -37 140 -140 575 -140 591 0 29 12 -11 85
-276z m1867 129 c-38 -82 -155 -327 -259 -544 -104 -217 -212 -443 -238 -502
-27 -59 -51 -106 -53 -103 -10 10 202 472 441 958 173 354 234 460 109 191z
m-1638 -269 c59 -269 96 -510 140 -899 2 -21 1 -35 -3 -30 -4 5 -16 63 -25
129 -27 187 -91 542 -156 867 -33 163 -60 310 -59 325 1 34 56 -175 103 -392z
m1372 343 c-13 -35 -56 -148 -96 -253 -70 -186 -256 -660 -351 -900 -57 -142
-62 -138 -15 12 72 228 173 492 344 893 55 129 107 252 115 273 26 62 29 41 3
-25z m-10 -371 c-241 -577 -380 -899 -384 -888 -4 13 107 303 199 519 112 260
351 793 355 789 2 -2 -75 -191 -170 -420z"/>
<path d="M5123 4455 c0 -22 2 -30 4 -17 2 12 2 30 0 40 -3 9 -5 -1 -4 -23z"/>
<path d="M5000 4328 c-64 -211 -72 -235 -110 -298 -59 -101 -160 -212 -256
-282 -278 -203 -282 -206 -277 -231 4 -22 8 -24 56 -19 29 2 67 13 85 23 18
11 102 47 185 80 303 123 351 157 383 275 20 76 15 173 -16 304 -22 88 -27
166 -15 219 4 17 4 31 1 31 -3 0 -19 -46 -36 -102z"/>
<path d="M5131 4295 c-1 -44 4 -129 10 -190 18 -174 15 -226 -20 -300 -39 -84
-105 -153 -216 -227 l-90 -60 81 4 c141 8 228 68 277 191 34 87 35 257 2 442
-39 224 -43 235 -44 140z"/>
<path d="M4235 3938 c-114 -140 -143 -193 -149 -269 -5 -72 8 -111 17 -49 8
58 88 220 171 343 36 53 65 97 63 97 -1 0 -47 -55 -102 -122z"/>
<path d="M4280 3713 c-63 -23 -46 -123 21 -123 46 0 75 42 59 85 -7 19 -50 50
-63 44 -1 0 -9 -3 -17 -6z"/>
<path d="M5509 3475 c121 -131 128 -185 44 -348 -67 -128 -117 -183 -204 -228
-80 -40 -201 -111 -196 -115 4 -4 186 41 252 62 193 63 270 165 270 354 0 76
-4 93 -33 152 -33 68 -96 134 -163 172 -29 17 -24 9 30 -49z"/>
<path d="M5075 3481 c-39 -10 -75 -29 -75 -40 0 -5 17 -12 38 -16 122 -22 202
-95 172 -158 -6 -12 15 6 47 40 59 62 121 159 109 171 -10 9 -256 12 -291 3z"/>
<path d="M5404 3438 c-6 -7 -20 -40 -33 -73 -25 -63 -55 -119 -79 -147 -13
-16 -17 -16 -35 -3 -33 23 -80 19 -112 -10 -23 -22 -26 -32 -23 -68 3 -23 8
-49 12 -58 10 -23 -88 -72 -302 -153 -347 -131 -449 -182 -412 -207 24 -16
113 0 320 57 496 136 624 203 705 367 64 132 79 242 37 280 -25 23 -67 31 -78
15z"/>
<path d="M3680 3270 c-40 -40 -22 -114 32 -133 24 -9 76 11 88 33 42 79 -58
162 -120 100z"/>
<path d="M4542 3070 c-26 -25 -27 -38 -6 -68 11 -16 25 -22 50 -22 51 0 74 15
74 50 0 55 -75 80 -118 40z"/>
<path d="M5892 2909 c-1 -14 -14 -36 -28 -50 -21 -19 -25 -31 -21 -56 7 -44
-49 -121 -167 -228 -127 -116 -216 -180 -327 -236 -184 -92 -343 -133 -581
-150 -86 -6 -203 -21 -266 -35 -149 -33 -349 -88 -393 -108 -19 -9 -26 -14
-15 -11 10 3 92 12 182 20 90 8 214 26 276 39 144 31 216 41 462 66 110 11
234 29 275 41 172 47 374 169 511 309 99 102 125 144 125 201 0 40 4 50 22 58
34 16 41 60 13 83 -12 10 -30 18 -40 18 -14 0 -20 9 -23 33 -3 26 -4 27 -5 6z"/>
<path d="M4070 2812 c-50 -25 -76 -81 -61 -132 16 -54 52 -80 112 -80 40 0 52
5 78 31 60 59 33 166 -47 189 -47 13 -41 13 -82 -8z"/>
<path d="M4939 2581 c-37 -38 -37 -63 2 -95 24 -20 41 -26 81 -26 41 0 54 5
79 29 16 16 29 37 29 46 0 9 -13 30 -29 46 -25 25 -37 29 -81 29 -44 0 -56 -4
-81 -29z"/>
<path d="M3310 2595 c0 -11 89 -48 153 -65 64 -16 111 -18 417 -16 315 2 416
8 573 35 22 3 -120 6 -315 6 -316 0 -597 14 -795 40 -18 2 -33 2 -33 0z"/>
<path d="M5440 2490 c-8 -5 -10 -10 -5 -10 6 0 17 5 25 10 8 5 11 10 5 10 -5
0 -17 -5 -25 -10z"/>
</g>
</svg>
