<?xml version="1.0" standalone="no"?>
<!DOCTYPE svg PUBLIC "-//W3C//DTD SVG 20010904//EN"
 "http://www.w3.org/TR/2001/REC-SVG-20010904/DTD/svg10.dtd">
<svg version="1.0" xmlns="http://www.w3.org/2000/svg"
 width="360.000000pt" height="360.000000pt" viewBox="0 0 360.000000 360.000000"
 preserveAspectRatio="xMidYMid meet">

<g transform="translate(0.000000,360.000000) scale(0.100000,-0.100000)"
fill="#000000" stroke="none">
<path d="M1896 3037 c-28 -36 -34 -86 -17 -144 l9 -31 -42 44 c-32 32 -50 44
-72 44 -36 0 -70 -22 -77 -50 -5 -21 26 -70 46 -70 7 0 1 9 -12 19 -51 39 5
108 65 80 27 -14 114 -111 114 -128 0 -5 -25 -3 -56 5 -31 9 -61 13 -67 11 -7
-2 8 -10 33 -16 80 -21 102 -32 94 -50 -3 -9 -10 -48 -14 -87 -21 -178 -85
-232 -262 -221 -65 4 -81 3 -53 -3 108 -24 209 -5 261 47 34 34 74 141 74 199
0 36 10 74 19 74 11 0 45 -62 53 -94 14 -62 -40 -108 -62 -53 -6 15 -9 17 -9
6 -1 -22 24 -42 46 -37 10 2 23 14 29 27 12 23 12 23 38 -22 44 -74 49 -105
26 -153 -33 -67 -99 -96 -307 -134 -144 -26 -207 -46 -240 -75 -27 -24 -26
-24 29 4 31 16 81 34 110 40 29 5 103 20 163 31 163 32 236 70 265 141 17 41
6 86 -41 163 -22 37 -39 71 -37 76 6 19 128 -100 136 -133 7 -26 14 -33 39
-35 53 -5 73 -39 88 -145 7 -52 19 -104 27 -116 7 -12 52 -42 100 -67 92 -47
118 -76 118 -129 0 -103 -142 -204 -341 -245 -117 -24 -372 -44 -444 -35 l-53
6 3 42 c3 40 5 43 51 61 27 10 127 38 223 62 99 24 205 58 246 78 71 33 155
98 155 119 0 5 -23 -12 -50 -37 -69 -65 -147 -97 -346 -146 -93 -23 -195 -52
-227 -65 -39 -16 -70 -21 -95 -18 -23 3 -65 -3 -109 -16 -80 -24 -102 -25
-158 -10 -42 12 -105 67 -105 92 0 9 11 29 25 45 l25 30 -44 -5 -43 -5 43 89
c25 54 56 101 75 117 l32 28 -34 -7 c-71 -13 -72 38 -3 121 44 55 88 81 155
93 l54 10 -58 -3 c-70 -3 -123 -36 -175 -109 -42 -59 -47 -106 -14 -123 16 -8
20 -14 12 -19 -7 -4 -29 -45 -50 -90 -21 -45 -43 -86 -49 -89 -20 -13 -11 -24
23 -30 33 -6 34 -7 23 -36 -10 -25 -8 -34 9 -57 50 -67 146 -86 268 -54 95 25
110 26 126 6 10 -12 11 -24 3 -50 -11 -34 -11 -35 25 -41 51 -10 300 3 408 21
162 26 272 68 351 131 44 36 87 44 126 22 12 -7 29 -13 37 -14 8 -2 24 -14 35
-27 100 -122 106 -136 85 -191 -5 -14 -16 -26 -25 -26 -11 0 -15 -10 -15 -35
l0 -35 -39 6 c-38 6 -40 5 -61 -36 l-21 -42 -55 7 c-50 6 -59 4 -103 -24 -47
-30 -51 -31 -142 -27 -94 5 -123 -2 -146 -33 -10 -14 -12 -14 -18 2 -9 21 -27
22 -88 0 -46 -16 -53 -16 -188 6 -136 22 -141 22 -166 4 -14 -10 -32 -22 -40
-28 -11 -8 -20 -3 -39 20 -23 29 -25 30 -104 26 -61 -2 -86 1 -105 13 -30 20
-58 20 -94 1 -28 -14 -29 -13 -35 11 -6 22 -10 24 -40 19 -20 -4 -36 -2 -40 4
-4 6 -18 11 -32 11 -17 0 -24 5 -24 20 0 16 -7 20 -30 20 -28 0 -30 2 -30 41
0 34 -3 40 -16 35 -64 -24 -80 -16 -70 38 9 50 60 119 106 145 l40 22 0 -43
c0 -125 124 -179 502 -218 347 -36 471 -28 715 46 218 66 313 138 296 227 -9
45 -21 40 -16 -7 5 -39 2 -47 -30 -83 -46 -51 -137 -95 -276 -133 -242 -67
-334 -73 -672 -40 -367 36 -509 93 -509 207 0 66 44 133 87 133 13 0 23 5 23
11 0 35 -109 -40 -110 -76 -1 -12 -82 -50 -127 -60 -28 -6 -33 -11 -33 -36 0
-22 -5 -29 -20 -29 -11 0 -24 -8 -27 -17 -4 -10 -17 -28 -30 -41 -23 -21 -23
-50 -1 -36 8 5 9 1 5 -11 -4 -9 -3 -23 2 -29 22 -28 83 -205 121 -349 72 -276
117 -379 203 -466 71 -72 128 -95 334 -137 308 -62 521 -57 787 21 198 57 239
91 251 201 10 97 54 262 120 449 31 88 69 208 84 266 26 96 27 108 14 122 -18
17 -26 74 -12 83 17 10 9 20 -33 44 -24 12 -51 29 -60 37 -9 8 -21 12 -26 9
-5 -3 -34 8 -63 24 -30 16 -66 30 -81 30 -25 0 -27 2 -18 26 17 43 12 109 -10
136 -10 14 -58 44 -105 67 -47 23 -90 52 -96 64 -7 12 -16 57 -20 101 -4 44
-13 92 -20 108 -12 29 -54 58 -83 58 -9 0 -22 15 -30 34 -8 19 -42 56 -77 86
-66 53 -99 87 -99 100 0 4 31 5 69 2 40 -3 76 0 87 6 15 9 -3 11 -78 12 -58 0
-98 4 -98 10 0 17 77 67 126 80 56 16 92 6 113 -32 14 -24 14 -29 -4 -50 l-20
-23 23 19 c29 25 28 51 -4 81 -36 34 -94 33 -153 0 -24 -14 -46 -24 -48 -22
-2 2 3 30 12 63 8 32 15 72 14 89 0 17 -8 -4 -19 -52 -10 -44 -27 -98 -37
-118 l-19 -37 -17 39 c-39 89 -43 170 -11 221 16 24 53 29 73 10 10 -11 11
-10 6 5 -12 30 -60 22 -89 -16z m837 -1167 c43 -22 60 -40 38 -40 -14 0 -1
-72 17 -92 14 -17 13 -18 -13 -18 -22 0 -26 -4 -22 -20 3 -13 0 -20 -9 -20
-10 0 -11 6 -4 26 18 48 11 78 -30 128 -37 44 -51 73 -32 64 4 -2 28 -14 55
-28z m-1735 -70 c-7 -11 -16 -20 -20 -20 -5 0 -8 9 -8 20 0 13 7 20 20 20 18
0 19 -2 8 -20z m-38 -66 c-6 -14 -10 -39 -10 -55 0 -26 -3 -29 -30 -29 -27 0
-30 2 -20 19 14 27 13 31 -7 25 -11 -3 -7 3 9 16 16 12 25 27 21 35 -4 11 2
15 21 15 23 0 25 -2 16 -26z m1833 -46 c-12 -54 -58 -204 -104 -338 -64 -186
-94 -292 -114 -410 -9 -52 -20 -105 -25 -117 -27 -67 -425 -173 -646 -173 -75
0 -226 20 -342 46 l-72 15 6 77 c4 44 1 117 -5 167 -11 78 -84 422 -96 450
-11 25 10 -94 42 -229 42 -181 56 -299 48 -388 -8 -78 -12 -80 -101 -53 l-49
14 -28 162 c-43 241 -127 569 -147 569 -3 0 9 -45 27 -99 47 -144 143 -605
129 -619 -11 -10 -90 54 -126 103 -72 96 -93 152 -195 520 -20 72 -47 154 -61
184 -13 30 -22 57 -19 60 3 3 20 6 38 8 18 1 44 5 59 9 27 6 28 5 28 -30 0
-33 2 -36 30 -36 19 0 30 -5 30 -14 0 -24 27 -37 81 -40 43 -2 54 -7 60 -24
10 -26 17 -27 43 -7 26 19 56 19 84 -1 16 -11 44 -15 107 -13 81 2 86 1 106
-25 25 -31 38 -32 72 -6 31 24 85 26 194 5 98 -19 137 -19 192 1 40 13 46 13
60 0 13 -14 17 -14 38 6 22 20 32 22 128 20 103 -3 105 -3 151 29 43 30 49 31
96 21 54 -10 56 -10 89 46 18 31 22 33 59 27 38 -6 39 -6 42 27 3 31 5 33 36
31 31 -1 34 1 29 23 -3 18 0 24 13 24 14 0 17 -6 13 -22z"/>
<path d="M980 1578 c0 -39 184 -655 201 -672 13 -14 11 -5 -7 45 -32 91 -162
526 -174 582 -11 53 -20 74 -20 45z"/>
<path d="M2681 1529 c-90 -231 -154 -435 -181 -574 -6 -33 -13 -71 -16 -83 -3
-13 -1 -21 4 -18 5 3 12 29 16 58 14 109 101 401 167 559 16 40 27 74 24 77
-2 3 -9 -6 -14 -19z"/>
<path d="M1065 1495 c4 -11 19 -72 35 -135 15 -63 44 -171 65 -240 20 -69 48
-163 62 -209 13 -45 26 -81 28 -79 2 2 -19 80 -46 173 -27 94 -67 239 -90 324
-22 85 -45 162 -50 170 -9 13 -9 12 -4 -4z"/>
<path d="M2516 1313 c-33 -135 -106 -483 -106 -506 0 -35 14 22 46 179 38 194
75 352 97 427 8 26 12 47 7 47 -4 0 -23 -66 -44 -147z"/>
<path d="M1274 1435 c3 -11 20 -78 39 -150 54 -203 84 -333 96 -415 6 -41 13
-86 15 -100 2 -17 4 -14 5 11 0 20 -6 76 -14 125 -18 104 -122 511 -136 534
-8 12 -9 11 -5 -5z"/>
<path d="M2432 1236 c-59 -220 -79 -316 -83 -398 -4 -93 7 -76 14 19 4 60 25
165 67 327 33 131 59 240 57 242 -2 2 -27 -83 -55 -190z"/>
<path d="M1516 1309 c32 -156 44 -272 45 -451 1 -113 3 -144 10 -118 24 91
-33 633 -71 673 -4 4 3 -42 16 -104z"/>
<path d="M2377 1343 c-3 -38 -26 -147 -51 -243 -48 -190 -61 -270 -49 -313 6
-19 8 -5 9 50 1 58 13 123 48 256 41 156 69 317 54 317 -3 0 -8 -30 -11 -67z"/>
<path d="M1614 1070 c0 -179 2 -252 3 -162 2 89 2 235 0 325 -1 89 -3 16 -3
-163z"/>
<path d="M1683 1250 c0 -152 -12 -451 -19 -502 -3 -21 -2 -38 3 -38 12 0 33
541 24 610 -6 43 -8 27 -8 -70z"/>
<path d="M1977 1363 c-15 -24 -27 -237 -25 -437 l1 -221 8 280 c4 154 12 302
17 330 10 49 10 65 -1 48z"/>
<path d="M2064 1353 c-11 -24 -16 -653 -5 -653 5 0 6 108 4 243 -3 135 -1 282
5 332 11 94 10 108 -4 78z"/>
<path d="M2195 1359 c-8 -22 -35 -159 -34 -172 0 -7 11 31 24 83 13 52 21 97
19 99 -2 2 -6 -2 -9 -10z"/>
<path d="M2286 1293 c-58 -173 -119 -524 -96 -547 7 -7 10 11 10 56 0 100 64
414 107 519 8 22 13 42 10 45 -3 3 -17 -30 -31 -73z"/>
<path d="M1774 1040 c0 -179 2 -252 3 -162 2 89 2 235 0 325 -1 89 -3 16 -3
-163z"/>
<path d="M1885 1329 c-45 -187 -60 -349 -47 -509 l11 -125 -5 130 c-5 145 7
283 36 425 11 52 17 96 15 98 -2 2 -7 -6 -10 -19z"/>
<path d="M2152 1150 c0 -14 2 -19 5 -12 2 6 2 18 0 25 -3 6 -5 1 -5 -13z"/>
<path d="M2141 1094 c0 -11 3 -14 6 -6 3 7 2 16 -1 19 -3 4 -6 -2 -5 -13z"/>
<path d="M2131 1034 c0 -11 3 -14 6 -6 3 7 2 16 -1 19 -3 4 -6 -2 -5 -13z"/>
<path d="M2122 960 c0 -14 2 -19 5 -12 2 6 2 18 0 25 -3 6 -5 1 -5 -13z"/>
<path d="M2114 805 c0 -55 1 -76 3 -47 2 29 2 74 0 100 -2 26 -3 2 -3 -53z"/>
<path d="M1823 2760 c-36 -14 -27 -19 15 -9 55 15 60 17 32 18 -14 0 -35 -4
-47 -9z"/>
<path d="M1764 2716 c-11 -17 -40 -33 -94 -51 -125 -42 -191 -101 -189 -172 0
-24 2 -21 14 16 23 74 61 104 187 147 53 18 68 20 68 9 0 -8 12 -27 26 -42
l26 -28 -21 29 c-25 34 -27 63 -5 94 8 12 13 22 10 22 -3 0 -13 -11 -22 -24z"/>
<path d="M1880 2673 c0 -6 -13 -25 -29 -42 -16 -17 -25 -31 -21 -31 13 0 64
70 56 77 -3 3 -6 2 -6 -4z"/>
<path d="M2110 2402 c0 -4 16 -6 35 -4 44 5 44 -7 4 -53 -41 -46 -132 -89
-354 -165 -99 -34 -184 -66 -189 -71 -6 -5 28 -7 85 -4 52 3 144 7 204 10 61
3 133 11 160 18 72 20 185 81 185 101 0 3 -23 -9 -51 -29 -88 -60 -212 -85
-424 -85 l-110 1 150 50 c253 85 385 160 385 220 0 16 -7 19 -40 19 -22 0 -40
-4 -40 -8z"/>
</g>
</svg>
