<?xml version="1.0" standalone="no"?>
<!DOCTYPE svg PUBLIC "-//W3C//DTD SVG 20010904//EN"
 "http://www.w3.org/TR/2001/REC-SVG-20010904/DTD/svg10.dtd">
<svg version="1.0" xmlns="http://www.w3.org/2000/svg"
 width="600.000000pt" height="334.000000pt" viewBox="0 0 600.000000 334.000000"
 preserveAspectRatio="xMidYMid meet">

<g transform="translate(0.000000,334.000000) scale(0.100000,-0.100000)"
fill="#000000" stroke="none">
<path d="M3430 3180 c-19 -10 -75 -53 -125 -95 -157 -134 -203 -166 -348 -239
-287 -144 -424 -294 -471 -517 -5 -22 -13 -27 -58 -35 -33 -6 -67 -6 -91 0
-53 13 -70 0 -79 -59 -8 -56 -10 -59 -63 -75 -82 -26 -150 -126 -142 -209 2
-25 8 -56 12 -67 6 -19 2 -22 -29 -28 -38 -7 -66 -29 -66 -51 0 -8 14 -28 30
-45 37 -37 38 -66 5 -110 -29 -39 -32 -72 -10 -90 14 -12 12 -17 -18 -49 -50
-53 -59 -75 -65 -170 -3 -57 -9 -89 -18 -94 -24 -14 -16 -37 67 -179 107 -185
221 -406 325 -630 86 -185 110 -223 154 -240 73 -28 365 -58 575 -58 169 0
394 20 470 40 22 6 50 14 62 17 35 8 54 37 182 281 146 280 276 517 342 629
50 84 57 103 38 103 -6 0 -8 15 -4 43 10 68 -10 125 -64 179 l-48 48 29 42
c16 24 38 74 50 112 46 151 -3 353 -116 475 -41 44 -138 108 -179 117 -19 4
-60 33 -102 72 -76 70 -178 146 -210 156 -18 5 -20 14 -20 108 0 74 -6 127
-23 190 -42 162 -25 302 48 393 17 21 30 42 30 46 0 15 -33 9 -70 -11z m28
-17 c-81 -92 -98 -255 -48 -453 18 -68 21 -102 17 -171 l-6 -87 42 -18 c51
-23 121 -77 209 -161 42 -40 74 -63 90 -63 68 -1 202 -119 253 -224 85 -172
70 -358 -37 -494 -42 -53 -125 -122 -189 -157 -61 -33 -65 -26 -6 8 63 37 157
142 200 224 43 82 49 109 10 43 -62 -106 -189 -222 -323 -298 -62 -35 -91 -45
-270 -93 -107 -29 -235 -36 -282 -16 -58 24 -45 34 35 29 159 -10 399 74 610
214 126 84 185 162 202 269 l6 40 -19 -41 c-42 -87 -211 -240 -353 -318 -79
-43 -220 -90 -364 -120 -146 -31 -448 -52 -530 -37 -74 14 -83 22 -68 62 l12
30 -82 -7 c-93 -7 -215 8 -293 37 -27 10 -73 38 -102 62 -28 23 -61 49 -73 58
-16 11 -20 21 -16 34 7 16 17 17 110 12 56 -4 143 -13 192 -21 359 -59 711
-38 1028 64 53 17 97 33 97 37 0 3 -7 2 -16 -1 -199 -76 -700 -122 -889 -81
-106 23 -356 38 -456 27 -138 -15 -181 17 -124 92 34 45 32 83 -6 122 -18 18
-29 39 -26 47 3 8 26 20 52 26 45 11 47 13 40 39 -4 15 -9 48 -12 73 -8 77 50
166 125 190 54 17 72 37 72 78 0 54 11 65 56 57 53 -8 51 -8 115 0 l57 7 6 39
c33 208 197 385 476 516 119 56 156 82 302 203 130 110 220 172 176 122z
m-1335 -2313 c145 -289 230 -470 221 -470 -3 0 -58 109 -123 242 -65 134 -151
308 -191 388 -39 80 -67 140 -61 135 6 -6 75 -139 154 -295z m1394 185 c-17
-52 -32 -93 -35 -91 -4 5 37 143 50 169 18 35 14 14 -15 -78z m-1469 60 c-3
-3 -9 2 -12 12 -6 14 -5 15 5 6 7 -7 10 -15 7 -18z m1059 -187 c-9 -300 -33
-685 -42 -676 -6 6 36 888 43 888 3 0 2 -96 -1 -212z m-233 -88 c31 -236 59
-526 54 -572 -2 -18 -16 75 -31 207 -15 132 -34 292 -42 356 -17 144 -28 329
-15 254 4 -27 20 -138 34 -245z m383 258 c-3 -8 -6 -5 -6 6 -1 11 2 17 5 13 3
-3 4 -12 1 -19z m-923 -283 c85 -198 210 -524 204 -531 -3 -2 -22 40 -43 94
-21 53 -65 158 -98 232 -64 148 -181 440 -191 480 -9 36 44 -77 128 -275z
m1015 64 c-28 -123 -60 -260 -70 -304 -11 -44 -29 -125 -41 -179 -39 -176 -30
-84 12 125 55 274 136 596 147 586 2 -2 -20 -105 -48 -228z m642 208 c-10 -9
-11 -8 -5 6 3 10 9 15 12 12 3 -3 0 -11 -7 -18z m-1809 -234 c151 -312 190
-395 183 -401 -2 -3 -9 6 -14 19 -5 13 -74 158 -155 323 -80 164 -146 300
-146 302 0 21 29 -32 132 -243z m337 -25 c93 -284 172 -547 170 -570 -1 -13
-16 32 -124 362 -61 186 -145 460 -145 473 0 28 19 -25 99 -265z m216 116 c41
-172 91 -457 100 -559 8 -102 -1 -72 -34 125 -17 97 -49 265 -71 375 -22 110
-40 204 -40 209 0 29 14 -18 45 -150z m267 -289 c3 -209 2 -348 -2 -310 -11
107 -21 765 -11 725 5 -19 11 -206 13 -415z m-812 296 c83 -168 145 -302 216
-476 55 -135 67 -181 19 -73 -16 35 -55 119 -87 186 -32 68 -58 125 -58 127 0
2 -23 52 -51 112 -28 59 -55 117 -59 128 -5 11 -20 46 -34 78 -47 105 -17 59
54 -82z m180 -6 c66 -178 225 -622 235 -655 31 -105 -96 211 -185 460 -83 231
-122 355 -106 339 2 -2 28 -67 56 -144z m230 20 c83 -310 103 -390 131 -520
16 -77 29 -151 28 -165 0 -14 -14 34 -29 105 -16 72 -43 182 -60 245 -30 113
-110 444 -110 457 0 20 12 -15 40 -122z m641 18 c-6 -43 -22 -163 -36 -268
-34 -252 -42 -300 -44 -257 -1 39 42 382 64 509 8 47 15 90 15 96 0 6 3 8 6 4
4 -3 1 -41 -5 -84z m365 -59 c-201 -517 -261 -665 -263 -657 -9 27 300 813
314 800 2 -2 -21 -66 -51 -143z m317 131 c-3 -9 -8 -14 -10 -11 -3 3 -2 9 2
15 9 16 15 13 8 -4z m48 -8 c-10 -9 -11 -8 -5 6 3 10 9 15 12 12 3 -3 0 -11
-7 -18z m-293 -355 c-95 -198 -174 -359 -175 -358 -6 5 92 216 234 508 59 120
108 216 110 214 2 -2 -74 -165 -169 -364z m53 321 c-12 -20 -14 -14 -5 12 4 9
9 14 11 11 3 -2 0 -13 -6 -23z m13 -314 c-91 -182 -168 -328 -171 -325 -4 4
204 428 255 519 12 20 33 60 47 87 14 28 28 50 30 50 3 0 -69 -149 -161 -331z
m107 100 c-126 -256 -231 -453 -237 -446 -4 4 68 150 269 539 39 76 72 136 74
134 2 -2 -46 -104 -106 -227z m-144 154 c-8 -15 -29 -64 -46 -107 -49 -123
-253 -600 -258 -606 -18 -17 97 272 205 515 101 229 104 236 109 231 3 -2 -2
-17 -10 -33z m-263 -129 c-62 -202 -74 -245 -112 -378 -20 -71 -38 -124 -40
-118 -3 10 78 299 138 487 16 50 31 100 35 113 4 13 9 21 11 19 3 -2 -12 -58
-32 -123z m-1044 -430 c11 -26 20 -49 20 -53 -1 -8 -49 81 -50 92 -1 18 11 3
30 -39z m755 -49 c-4 -37 -9 -64 -12 -62 -3 3 -2 35 2 72 4 36 10 64 12 61 3
-3 2 -35 -2 -71z m-791 29 c3 -8 2 -12 -4 -9 -6 3 -10 10 -10 16 0 14 7 11 14
-7z m1198 -36 c-7 -7 -12 -8 -12 -2 0 14 12 26 19 19 2 -3 -1 -11 -7 -17z m34
-30 c-18 -26 -22 -17 -5 14 6 11 13 17 16 15 3 -3 -2 -16 -11 -29z m-1156 -13
c0 -5 -5 -3 -10 5 -5 8 -10 20 -10 25 0 6 5 3 10 -5 5 -8 10 -19 10 -25z m34
19 c3 -8 2 -12 -4 -9 -6 3 -10 10 -10 16 0 14 7 11 14 -7z m1067 -17 c-10 -9
-11 -8 -5 6 3 10 9 15 12 12 3 -3 0 -11 -7 -18z m-257 -21 c-3 -15 -8 -25 -11
-23 -2 3 -1 17 3 31 3 15 8 25 11 23 2 -3 1 -17 -3 -31z m-437 -23 c-3 -10 -5
-2 -5 17 0 19 2 27 5 18 2 -10 2 -26 0 -35z m360 15 c-3 -8 -6 -5 -6 6 -1 11
2 17 5 13 3 -3 4 -12 1 -19z"/>
<path d="M3246 2778 c-50 -171 -120 -261 -300 -388 -112 -79 -133 -110 -76
-110 17 0 52 11 78 24 26 13 94 43 152 66 135 55 166 76 190 126 23 45 27 146
9 204 -6 19 -13 67 -17 105 l-7 70 -29 -97z"/>
<path d="M3343 2790 c4 -30 9 -100 13 -156 5 -87 4 -107 -13 -145 -27 -61 -64
-101 -135 -148 l-60 -41 46 0 c167 0 229 152 177 433 -20 108 -37 143 -28 57z"/>
<path d="M2745 2549 c-61 -74 -84 -123 -84 -174 l0 -30 11 25 c33 77 62 133
98 188 22 34 38 62 37 62 -2 0 -29 -32 -62 -71z"/>
<path d="M2778 2411 c-20 -16 -21 -22 -10 -45 13 -29 42 -34 66 -10 19 18 19
20 6 43 -14 28 -37 32 -62 12z"/>
<path d="M3608 2252 c60 -76 63 -109 20 -196 -47 -95 -79 -131 -147 -166 -31
-16 -69 -39 -86 -50 l-30 -21 35 6 c61 11 165 46 206 68 28 16 47 38 67 77 25
48 28 64 25 127 -3 61 -8 78 -33 114 -17 23 -46 54 -64 68 l-35 26 42 -53z"/>
<path d="M3308 2271 c-51 -17 -50 -23 6 -46 77 -31 89 -43 83 -79 l-4 -30 39
44 c45 50 73 99 63 108 -10 10 -157 12 -187 3z"/>
<path d="M3491 2175 c-18 -42 -37 -77 -41 -80 -4 -2 -21 1 -38 7 -27 10 -34 9
-52 -7 -16 -15 -21 -29 -18 -59 3 -36 0 -42 -30 -59 -18 -10 -92 -41 -164 -68
-174 -65 -268 -109 -268 -125 0 -21 37 -17 182 20 224 58 343 102 415 154 50
37 104 139 111 211 4 42 1 50 -19 65 -13 9 -28 16 -34 16 -5 0 -25 -34 -44
-75z"/>
<path d="M2412 2143 c-22 -9 -33 -40 -23 -66 20 -51 91 -33 91 23 0 38 -32 58
-68 43z"/>
<path d="M2968 2009 c-35 -20 -15 -69 27 -69 43 0 62 50 26 70 -24 12 -31 12
-53 -1z"/>
<path d="M3841 1899 c0 -9 -8 -22 -16 -29 -8 -7 -15 -25 -15 -40 0 -77 -229
-274 -389 -334 -103 -39 -177 -55 -311 -67 -113 -10 -301 -49 -405 -84 -38
-13 -36 -13 45 -8 47 3 128 13 180 23 152 29 217 38 345 50 214 20 339 74 488
210 66 60 100 111 99 148 0 16 9 34 20 43 25 19 18 48 -11 56 -11 3 -22 15
-24 27 -3 12 -5 14 -6 5z"/>
<path d="M2630 1818 c-44 -48 -11 -122 55 -122 45 0 75 30 75 75 0 63 -86 94
-130 47z"/>
<path d="M2177 1683 c47 -35 113 -43 347 -42 129 0 266 6 311 13 76 12 65 12
-235 19 -173 4 -343 11 -378 15 -54 7 -61 6 -45 -5z"/>
<path d="M3216 1681 c-25 -27 -12 -57 29 -71 62 -21 121 32 85 76 -19 21 -93
18 -114 -5z"/>
</g>
</svg>
